<?xml version="1.0" encoding="utf-8"?>
<!-- Generator: Adobe Illustrator 19.0.0, SVG Export Plug-In . SVG Version: 6.00 Build 0)  -->
<svg version="1.1" id="Camada_1" xmlns="http://www.w3.org/2000/svg" xmlns:xlink="http://www.w3.org/1999/xlink" x="0px" y="0px"
	 viewBox="-293 385 24 24" style="enable-background:new -293 385 24 24;" xml:space="preserve">
<style type="text/css">
	.st0{fill:none;}
	.st1{fill:#FFFFFF;}
</style>
<path class="st0" d="M-293,385h24v24h-24V385z"/>
<path class="st1" d="M-281.9,389c-1.6,0-2.4,0.2-3.1,0.6c-0.6,0.3-1.1,0.8-1.4,1.4c-0.4,0.7-0.6,1.5-0.6,3.1v5.7
	c0,1.6,0.2,2.4,0.6,3.1c0.3,0.6,0.8,1.1,1.4,1.4c0.7,0.4,1.5,0.6,3.1,0.6h1.7c1.6,0,2.4-0.2,3.1-0.6c0.6-0.3,1.1-0.8,1.4-1.4
	c0.4-0.7,0.6-1.5,0.6-3.1v-5.7c0-1.6-0.2-2.4-0.6-3.1c-0.3-0.6-0.8-1.1-1.4-1.4c-0.7-0.4-1.5-0.6-3.1-0.6H-281.9L-281.9,389z
	 M-281.9,387h1.7c2,0,3.1,0.3,4.1,0.8c1,0.5,1.8,1.3,2.3,2.3c0.5,1,0.8,2.1,0.8,4.1v5.7c0,2-0.3,3.1-0.8,4.1c-0.5,1-1.3,1.8-2.3,2.3
	c-1,0.5-2.1,0.8-4.1,0.8h-1.7c-2,0-3.1-0.3-4.1-0.8c-1-0.5-1.8-1.3-2.3-2.3c-0.5-1-0.8-2.1-0.8-4.1v-5.7c0-2,0.3-3.1,0.8-4.1
	c0.5-1,1.3-1.8,2.3-2.3C-285,387.3-283.9,387-281.9,387z M-282,391h2v5h-2V391z"/>
</svg>
