<?xml version="1.0" encoding="utf-8"?>
<!-- Generator: Adobe Illustrator 19.0.0, SVG Export Plug-In . SVG Version: 6.00 Build 0)  -->
<svg version="1.1" id="user" xmlns="http://www.w3.org/2000/svg" xmlns:xlink="http://www.w3.org/1999/xlink" x="0px" y="0px"
	 viewBox="-289.3 383.5 25.6 25.7" style="enable-background:new -289.3 383.5 25.6 25.7;" xml:space="preserve">
<style type="text/css">
	.st0{fill:#1A4895;}
</style>
<path class="st0" d="M-276.5,384c-6.9,0-12.5,5.6-12.5,12.5c0,6.9,5.6,12.5,12.5,12.5c6.9,0,12.5-5.6,12.5-12.5
	S-269.6,384-276.5,384z M-268.9,403.7c-2.1-4.2-7.2-5.9-11.4-3.8c-1.7,0.8-3,2.2-3.8,3.8c-1.9-1.9-2.9-4.5-2.9-7.2
	c0-5.8,4.7-10.5,10.5-10.5c5.8,0,10.5,4.7,10.5,10.5C-266,399.2-267,401.8-268.9,403.7z M-276.5,389c-2.5,0-4.5,2-4.5,4.5
	s2,4.5,4.5,4.5c2.5,0,4.5-2,4.5-4.5S-274,389-276.5,389L-276.5,389z"/>
</svg>
